<?xml version="1.0" encoding="UTF-8" standalone="no"?>
<!-- Created with Inkscape (http://www.inkscape.org/) -->

<svg
   width="4in"
   height="2in"
   viewBox="0 0 101.6 50.800002"
   version="1.1"
   id="svg5427"
   sodipodi:docname="Libertega-web.svg"
   inkscape:version="1.2.1 (9c6d41e410, 2022-07-14)"
   inkscape:export-filename="libertega-logo-phone-background.png"
   inkscape:export-xdpi="1200"
   inkscape:export-ydpi="1200"
   xmlns:inkscape="http://www.inkscape.org/namespaces/inkscape"
   xmlns:sodipodi="http://sodipodi.sourceforge.net/DTD/sodipodi-0.dtd"
   xmlns:xlink="http://www.w3.org/1999/xlink"
   xmlns="http://www.w3.org/2000/svg"
   xmlns:svg="http://www.w3.org/2000/svg">
  <sodipodi:namedview
     id="namedview5429"
     pagecolor="#505050"
     bordercolor="#eeeeee"
     borderopacity="1"
     inkscape:showpageshadow="0"
     inkscape:pageopacity="0"
     inkscape:pagecheckerboard="0"
     inkscape:deskcolor="#505050"
     inkscape:document-units="mm"
     showgrid="false"
     inkscape:zoom="11.816274"
     inkscape:cx="340.80116"
     inkscape:cy="88.395038"
     inkscape:window-width="1278"
     inkscape:window-height="1000"
     inkscape:window-x="1266"
     inkscape:window-y="0"
     inkscape:window-maximized="0"
     inkscape:current-layer="layer2"
     inkscape:lockguides="true" />
  <defs
     id="defs5424">
    <linearGradient
       inkscape:collect="always"
       id="linearGradient9942">
      <stop
         style="stop-color:#999999;stop-opacity:1;"
         offset="0"
         id="stop9938" />
      <stop
         style="stop-color:#999999;stop-opacity:0;"
         offset="1"
         id="stop9940" />
    </linearGradient>
    <color-profile
       name="Agfa-:-Swop-Standard"
       xlink:href="../../../../../../WINDOWS/system32/spool/drivers/color/RSWOP.icm"
       id="color-profile874" />
    <linearGradient
       inkscape:collect="always"
       id="linearGradient1867">
      <stop
         style="stop-color:#cccccc;stop-opacity:1;"
         offset="0"
         id="stop1863" />
      <stop
         style="stop-color:#700000;stop-opacity:1;"
         offset="1"
         id="stop1865" />
    </linearGradient>
    <radialGradient
       inkscape:collect="always"
       xlink:href="#linearGradient9942"
       id="radialGradient9944"
       cx="241.67699"
       cy="89.805542"
       fx="241.67699"
       fy="89.805542"
       r="119.85163"
       gradientTransform="matrix(0.41909629,0,0,0.00263882,-254.81272,52.637037)"
       gradientUnits="userSpaceOnUse" />
    <clipPath
       clipPathUnits="userSpaceOnUse"
       id="clipPath4445">
      <path
         id="path4447"
         style="font-weight:bold;font-size:85.3333px;font-family:Constantia;-inkscape-font-specification:'Constantia Bold';white-space:pre;display:inline;fill:url(#linearGradient4449);fill-opacity:1;stroke-width:0.247008"
         d="m -183.15311,35.009146 c -0.82121,0.02935 -1.79012,0.04431 -2.90643,0.04431 -0.41735,0 -0.80921,-0.0031 -1.18775,-0.008 -1.78246,0 -3.47751,0.635201 -4.68062,1.667743 -1.25747,1.11632 -1.88605,2.568788 -1.88605,4.357754 0,2.196853 1.3088,4.551201 3.92637,7.062916 v 0.064 h -3.16627 l -1.11602,-2.490008 -0.54854,0.107325 0.34645,4.540399 0.0577,0.09645 c 1.93111,-0.02146 3.88773,-0.03196 5.87016,-0.03196 l 0.14436,-1.996751 c -1.42427,-2.297039 -2.13641,-4.64401 -2.13641,-7.041239 0,-1.631538 0.26946,-2.930461 0.80837,-3.896488 0.52919,-0.955652 1.28417,-1.441389 2.26497,-1.458612 v 14.398236 c 0.36901,-0.0037 0.74709,-0.0062 1.13993,-0.0062 h 2.38632 c 1.51409,0 3.06347,0.01098 4.64813,0.03301 l 0.0677,-0.07688 0.24044,-4.347959 -0.58688,0.09905 -1.31856,3.126171 h -3.76262 c -0.0129,-0.792506 -0.0194,-1.592519 -0.0194,-2.399708 v -8.706451 -0.704277 c 0.006,-0.491651 0.013,-0.869376 0.0194,-1.13355 0.0129,-0.176147 0.0959,-0.286215 0.2499,-0.330216 l 1.19361,-0.407599 z"
         inkscape:label="path540-2"
         sodipodi:nodetypes="csccscccccccccscccssccccccscccccc" />
    </clipPath>
    <linearGradient
       inkscape:collect="always"
       xlink:href="#linearGradient1867"
       id="linearGradient4449"
       gradientUnits="userSpaceOnUse"
       gradientTransform="matrix(0.54482521,0,0,0.62315487,-351.19574,-50.771685)"
       x1="297.62445"
       y1="138.47522"
       x2="300.68729"
       y2="138.47522" />
    <linearGradient
       inkscape:collect="always"
       xlink:href="#linearGradient1867"
       id="linearGradient4457"
       gradientUnits="userSpaceOnUse"
       gradientTransform="matrix(0.54482521,0,0,0.62315487,-351.19574,-50.771685)"
       x1="297.62445"
       y1="138.47522"
       x2="300.68729"
       y2="138.47522" />
    <clipPath
       clipPathUnits="userSpaceOnUse"
       id="clipPath4460">
      <path
         style="fill:#000000;fill-opacity:0.472422;stroke:#000000;stroke-width:0.0529167"
         d="m -194.0036,36.459076 c -1.70997,14.724818 -1.20331,15.009814 -1.20331,15.009814 l 6.80824,-0.221666 0.69666,-2.596634 -1.01332,-6.903247 z"
         id="path4462"
         clip-path="none" />
    </clipPath>
  </defs>
  <g
     inkscape:groupmode="layer"
     id="layer2"
     inkscape:label="Background"
     style="fill:#0d035d;fill-opacity:1;stroke:#0d035d;stroke-opacity:1"
     transform="translate(-1.0133206,2.299402)">
    <text
       xml:space="preserve"
       style="font-size:3.6689px;font-family:'Times New Roman';-inkscape-font-specification:'Times New Roman, Normal';fill:#6a59fa;fill-opacity:1;stroke:#0d035d;stroke-width:0.0529167;stroke-opacity:1"
       x="89.66304"
       y="25.317183"
       id="text314"><tspan
         sodipodi:role="line"
         id="tspan312"
         style="fill:#6a59fa;fill-opacity:1;stroke:#0d035d;stroke-width:0.0529167;stroke-opacity:1"
         x="89.66304"
         y="25.317183">™</tspan></text>
  </g>
  <g
     inkscape:label="Layer 1"
     inkscape:groupmode="layer"
     id="layer1"
     transform="translate(204.3268,-23.792568)">
    <rect
       style="fill:url(#radialGradient9944);fill-opacity:1;stroke:#000000;stroke-width:0.0101424"
       id="rect9811"
       width="100.44926"
       height="0.62168741"
       x="-203.75143"
       y="52.563168" />
    <path
       d="m -175.33659,48.27437 q 0,0.412181 0,0.748804 0.006,0.336622 0.012,0.604548 0.006,0.178616 0.20422,0.240444 l 0.73877,0.240443 0.018,0.343496 q -0.83488,-0.02061 -1.84995,-0.02061 -1.0511,0 -1.87397,0.02061 l -0.03,-0.343496 0.80485,-0.254185 q 0.15015,-0.04812 0.16216,-0.212961 0.006,-0.274794 0.006,-0.611416 0.006,-0.343496 0.006,-0.755677 v -5.475277 q 0,-0.343495 -0.006,-0.625163 0,-0.281657 -0.006,-0.515235 -0.006,-0.178615 -0.14415,-0.226704 l -0.80484,-0.267925 -0.0181,-0.350363 q 0.83488,0.02748 1.84995,0.02748 1.04511,0 1.87397,-0.02748 l 0.03,0.350363 -0.80484,0.254185 q -0.14417,0.04119 -0.15617,0.206096 -0.006,0.247317 -0.012,0.535852 0,0.281658 0,0.611412 z"
       id="path542-8-7-1-3"
       style="font-weight:bold;font-size:85.3333px;font-family:Constantia;-inkscape-font-specification:'Constantia Bold';white-space:pre;fill:#cccccc;stroke-width:0.154166" />
    <path
       d="m -173.31246,40.813703 q 0.84088,0.02748 1.72982,0.02748 0.32434,-0.01371 1.01507,-0.04126 0.69072,-0.02748 0.94899,-0.02748 1.51961,0 2.28842,0.563326 0.7748,0.556457 0.7748,1.607548 0,1.648761 -1.70579,2.280792 0.99105,0.158001 1.52561,0.790027 0.54056,0.632031 0.54056,1.580075 0,1.373961 -0.96701,2.129643 -0.96702,0.748819 -2.73888,0.748819 -0.34837,0 -0.73278,-0.02061 -0.37839,-0.02061 -0.94899,-0.02061 -0.87692,0 -1.69978,0.02061 l -0.03,-0.343495 0.80485,-0.254185 q 0.15015,-0.04812 0.16217,-0.212961 0.006,-0.274795 0.006,-0.611417 0.006,-0.343495 0.006,-0.755682 v -5.475292 q 0,-0.343496 -0.006,-0.625158 0,-0.281662 -0.006,-0.515239 -0.006,-0.178615 -0.14415,-0.226704 l -0.80485,-0.267925 z m 2.76892,4.863857 v 4.108169 q 0.33634,0.06182 0.70873,0.06182 0.82287,0 1.24932,-0.542721 0.42645,-0.549588 0.42645,-1.586932 0,-1.037344 -0.43246,-1.538852 -0.43245,-0.508364 -1.39947,-0.508364 -0.2823,0 -0.55257,0.0069 z m 0,-0.618289 q 0.30632,0.0069 0.5826,0.0069 0.76882,0 1.1352,-0.419065 0.37239,-0.425927 0.37239,-1.435794 0,-0.948044 -0.3844,-1.360236 -0.3784,-0.412184 -1.09916,-0.412184 -0.11412,0 -0.27029,0.01371 -0.15015,0.0069 -0.33634,0.03433 z"
       id="path544-4-2-7-7"
       style="font-weight:bold;font-size:85.3333px;font-family:Constantia;-inkscape-font-specification:'Constantia Bold';white-space:pre;fill:#cccccc;stroke-width:0.154166" />
    <path
       d="m -163.58223,40.841184 h 1.5196 q 1.45954,0 3.02719,-0.02748 l 0.042,0.05496 -0.37239,2.287656 -0.32434,0.05496 -0.3844,-1.669377 h -2.32445 V 45.1898 h 0.32434 q 0.52255,0 1.12319,-0.01371 0.15616,-0.0069 0.20421,-0.185489 l 0.21623,-0.941166 0.39641,-0.02061 q -0.018,0.996131 -0.018,1.490765 0,0.480887 0.018,1.470145 l -0.39641,0.03431 -0.22224,-0.968649 q -0.0481,-0.185483 -0.18619,-0.192357 -0.61265,-0.0137 -1.14121,-0.0137 h -0.31833 V 48.2057 q 0,0.755681 0.012,1.497627 h 2.40252 l 0.7568,-1.806772 0.36638,-0.06182 -0.14415,2.569328 -0.0421,0.04812 q -1.49558,-0.02061 -2.91306,-0.02061 h -1.59167 q -0.77482,0 -1.59769,0.02061 l -0.03,-0.343496 0.80485,-0.254185 q 0.15016,-0.04812 0.16217,-0.212961 0.006,-0.274789 0.006,-0.611422 0.006,-0.343485 0.006,-0.755676 v -5.47534 q 0,-0.34349 -0.006,-0.625152 0,-0.281668 -0.006,-0.515239 -0.006,-0.178615 -0.14415,-0.226703 l -0.80485,-0.267926 -0.018,-0.350363 q 0.84088,0.02748 1.59768,0.02748 z"
       id="path546-9-0-1-0"
       style="font-weight:bold;font-size:85.3333px;font-family:Constantia;-inkscape-font-specification:'Constantia Bold';white-space:pre;fill:#cccccc;stroke-width:0.154166" />
    <path
       d="m -155.01121,48.27437 q 0,0.412181 0,0.741936 0.006,0.32288 0.012,0.590807 0.006,0.219834 0.13815,0.267926 l 0.62466,0.23357 0.018,0.343496 q -0.6667,-0.02061 -1.65173,-0.02061 -1.05112,0 -1.87398,0.02061 l -0.03,-0.343496 0.80484,-0.254185 q 0.15017,-0.04812 0.16218,-0.212961 0.006,-0.274794 0.006,-0.611416 0.006,-0.343496 0.006,-0.755677 v -5.475277 q 0,-0.343495 -0.006,-0.625163 0,-0.281657 -0.006,-0.515235 -0.006,-0.178615 -0.14416,-0.226704 l -0.80484,-0.267925 -0.018,-0.350363 q 0.84089,0.02748 1.72381,0.02748 0.1862,0 0.46249,-0.0069 0.27629,-0.01371 0.67271,-0.02748 0.36038,-0.01371 0.60063,-0.02063 0.24626,-0.0069 0.3844,-0.0069 1.54362,0 2.31243,0.590808 0.77482,0.590809 0.77482,1.724332 0,1.023613 -0.4745,1.655634 -0.46849,0.625157 -1.38145,0.96178 0.50453,0.85186 0.77481,1.380844 0.27629,0.528975 0.55258,1.044218 0.2763,0.50837 0.49853,0.899942 0.22824,0.391587 0.42645,0.618289 0.10811,0.103042 0.20421,0.178616 0.10211,0.07557 0.21022,0.130524 0.10812,0.05496 0.22824,0.09618 0.12613,0.03431 0.27629,0.0687 l 0.024,0.350363 q -0.58862,0.09618 -1.34542,0.09618 -0.60063,0 -0.84088,-0.08931 -0.24025,-0.08931 -0.42645,-0.254185 -0.27629,-0.247311 -0.51054,-0.645767 -0.22824,-0.39845 -0.48651,-0.899947 -0.25827,-0.501497 -0.53456,-1.064826 -0.27028,-0.56333 -0.5706,-1.112914 -0.0901,-0.158006 -0.15016,-0.261053 -0.054,-0.103052 -0.11412,-0.151138 -0.0541,-0.05496 -0.12012,-0.07557 -0.0601,-0.02746 -0.15617,-0.03431 l -0.25227,-0.0069 z m 0,-2.892218 q 0.31833,0.02061 0.5766,0.02061 0.8529,0 1.24932,-0.487766 0.39641,-0.494629 0.39641,-1.538841 0,-1.009867 -0.3844,-1.47015 -0.37839,-0.467153 -1.18324,-0.467153 -0.13815,0 -0.30032,0.01371 -0.15616,0.01371 -0.35437,0.04119 z"
       id="path548-6-4-1-4"
       style="font-weight:bold;font-size:85.3333px;font-family:Constantia;-inkscape-font-specification:'Constantia Bold';white-space:pre;fill:#cccccc;stroke-width:0.154166" />
    <path
       d="m -146.12787,50.431501 q -1.05711,0 -2.01812,0.02061 l -0.03,-0.343495 0.96101,-0.302272 q 0.15016,-0.05496 0.15617,-0.219829 0.012,-0.515249 0.012,-1.325885 v -6.711834 h -1.72982 l -0.55258,1.827385 -0.33636,0.06182 -0.15616,-2.56932 0.0421,-0.05496 q 1.47756,0.02748 2.82898,0.02748 h 1.67576 q 1.35142,0 2.84699,-0.02748 l 0.036,0.05496 -0.39641,2.51436 -0.33635,0.06182 -0.39042,-1.896072 h -1.73582 v 6.711846 q 0,0.810636 0.012,1.325885 0.006,0.164864 0.16218,0.219829 l 0.94299,0.302272 0.018,0.343495 q -0.99704,-0.02061 -2.01211,-0.02061 z"
       id="path550-2-2-9-2"
       style="font-weight:bold;font-size:85.3333px;font-family:Constantia;-inkscape-font-specification:'Constantia Bold';white-space:pre;fill:#cccccc;stroke-width:0.154166" />
    <path
       d="m -140.21766,40.841184 h 1.5196 q 1.45954,0 3.02719,-0.02748 l 0.0421,0.05496 -0.37239,2.287656 -0.32434,0.05496 -0.38441,-1.669377 h -2.32444 V 45.1898 h 0.32434 q 0.52255,0 1.12318,-0.01371 0.15616,-0.0069 0.20421,-0.185489 l 0.21623,-0.941166 0.39642,-0.02061 q -0.018,0.996131 -0.018,1.490765 0,0.480887 0.018,1.470145 l -0.39642,0.03431 -0.22223,-0.968649 q -0.0481,-0.185483 -0.1862,-0.192357 -0.61264,-0.0137 -1.1412,-0.0137 h -0.31833 V 48.2057 q 0,0.755681 0.012,1.497627 h 2.40253 l 0.75679,-1.806772 0.36639,-0.06182 -0.14415,2.569328 -0.0421,0.04812 q -1.49557,-0.02061 -2.91306,-0.02061 h -1.59167 q -0.77482,0 -1.59768,0.02061 l -0.03,-0.343496 0.80485,-0.254185 q 0.15015,-0.04812 0.16216,-0.212961 0.006,-0.274789 0.006,-0.611422 0.006,-0.343485 0.006,-0.755676 v -5.47534 q 0,-0.34349 -0.006,-0.625152 0,-0.281668 -0.006,-0.515239 -0.006,-0.178615 -0.14415,-0.226703 l -0.80484,-0.267926 -0.018,-0.350363 q 0.84088,0.02748 1.59768,0.02748 z"
       id="path552-9-5-1-0"
       style="font-weight:bold;font-size:85.3333px;font-family:Constantia;-inkscape-font-specification:'Constantia Bold';white-space:pre;fill:#cccccc;stroke-width:0.154166" />
    <path
       d="m -123.1549,47.381281 -0.42645,1.284661 q -0.12613,0.377846 -0.19821,0.611417 -0.0661,0.226702 -0.0661,0.350363 0,0.116783 0.0541,0.178616 0.054,0.06182 0.16818,0.09617 l 0.5766,0.192362 0.018,0.357232 q -0.87092,-0.02061 -1.41749,-0.02061 -0.5706,0 -1.30337,0.02061 l -0.03,-0.343496 0.64267,-0.219829 q 0.22824,-0.07557 0.33636,-0.247317 0.10811,-0.178615 0.24025,-0.535852 l 2.99114,-8.333123 0.64869,-0.109919 2.58872,8.353737 q 0.15016,0.480887 0.27028,0.65264 0.12613,0.164869 0.35437,0.240444 l 0.58863,0.199219 0.018,0.343496 q -0.81085,-0.02061 -1.63372,-0.02061 -1.08715,0 -2.12023,0.02061 l -0.03,-0.343496 0.59462,-0.199219 q 0.12013,-0.04117 0.17419,-0.103052 0.054,-0.06182 0.054,-0.185479 0,-0.137402 -0.0601,-0.357242 -0.0601,-0.226702 -0.17418,-0.590802 l -0.39642,-1.291534 z m 1.29736,-3.943294 q -0.10811,0.357232 -0.23424,0.741941 l -0.82287,2.48689 h 2.00611 l -0.73878,-2.480017 q -0.11412,-0.391582 -0.21022,-0.748814 z"
       id="path556-0-1-4-6"
       style="font-weight:bold;font-size:85.3333px;font-family:Constantia;-inkscape-font-specification:'Constantia Bold';white-space:pre;fill:#cccccc;stroke-width:0.154166" />
    <path
       id="path8671-7-1-7-8-4-2-3-0-9"
       style="font-weight:bold;font-size:85.3333px;font-family:Constantia;-inkscape-font-specification:'Constantia Bold';white-space:pre;display:inline;fill:#cccccc;stroke-width:0.154166"
       d="m -130.30895,40.426263 c -1.43891,0.03876 -2.58367,0.497602 -3.43345,1.37762 -0.44246,0.457987 -0.96943,1.604409 -1.19066,2.238716 -0.22124,0.634311 -0.33176,1.344668 -0.8086,1.560208 0.5821,0.382523 0.59947,0.820089 0.8207,1.414332 0.22123,0.594239 0.7361,1.732281 1.17856,2.158203 0.87133,0.834991 2.01612,1.260286 3.43374,1.276826 1.41763,-0.01648 2.5624,-0.441845 3.43373,-1.276826 0.44246,-0.425932 0.95732,-1.563964 1.17856,-2.158203 0.19545,-0.52503 0.23241,-0.927607 0.63967,-1.278122 h 0.58139 l -0.0259,-0.838543 c 0,0 -0.42083,0.02929 -0.76721,-0.278848 -0.15727,0.148314 -0.48369,0.499488 -0.7806,0.597932 -0.22048,-0.189371 -0.7268,-0.471179 -0.8075,-0.794594 -0.25646,0.355364 -0.52077,0.549212 -0.73508,0.6431 -0.23935,0.02872 -0.47418,-0.04143 -0.83313,-0.239858 -0.38761,0.224165 -0.90358,0.0419 -0.90358,0.0419 l 0.18132,0.406715 v 0.407039 c 0.0163,1.090955 0.26362,1.879062 0.26362,1.879062 l 0.29767,-0.922685 0.18507,-0.901218 h 0.47609 c 0.29312,0.422046 0.31868,1.223288 0.20722,1.702857 -0.12613,0.542726 -0.34123,0.801561 -0.5935,1.190847 -0.48167,0.743316 -1.14783,1.131436 -1.99813,1.165091 -0.85029,-0.03363 -1.51646,-0.421769 -1.99814,-1.165091 -0.25226,-0.389286 -0.57088,-0.904649 -0.69701,-1.44737 -0.12614,-0.54272 -0.13405,-1.244671 0.28001,-1.595485 -0.40543,-0.3309 -0.45849,-0.675703 -0.33335,-1.19896 0.12513,-0.523241 0.49418,-1.774095 0.74444,-2.154232 0.48597,-0.7367 1.15403,-1.118327 2.00405,-1.14544 0.55514,0.0177 1.03263,0.186916 1.43251,0.507186 l 2.8e-4,-0.594453 0.73202,-0.105624 c -0.62679,-0.29254 -1.34826,-0.450111 -2.16453,-0.47209 z"
       sodipodi:nodetypes="scscscccscccccccccccccccsscsscscccccss" />
    <path
       id="path4455"
       style="font-weight:bold;font-size:85.3333px;font-family:Constantia;-inkscape-font-specification:'Constantia Bold';white-space:pre;display:inline;fill:url(#linearGradient4457);fill-opacity:1;stroke-width:0.247008"
       d="m -183.15311,35.009146 c -0.82121,0.02935 -1.79012,0.04431 -2.90643,0.04431 -0.41735,0 -0.80921,-0.0031 -1.18775,-0.008 -1.78246,0 -3.47751,0.635201 -4.68062,1.667743 -1.25747,1.11632 -1.88605,2.568788 -1.88605,4.357754 0,2.196853 1.3088,4.551201 3.92637,7.062916 v 0.064 h -3.16627 l -1.11602,-2.490008 -0.54854,0.107325 0.34645,4.540399 0.0577,0.09645 c 1.93111,-0.02146 3.88773,-0.03196 5.87016,-0.03196 l 0.14436,-1.996751 c -1.42427,-2.297039 -2.13641,-4.64401 -2.13641,-7.041239 0,-1.631538 0.26946,-2.930461 0.80837,-3.896488 0.52919,-0.955652 1.28417,-1.441389 2.26497,-1.458612 v 14.398236 c 0.36901,-0.0037 0.74709,-0.0062 1.13993,-0.0062 h 2.38632 c 1.51409,0 3.06347,0.01098 4.64813,0.03301 l 0.0677,-0.07688 0.24044,-4.347959 -0.58688,0.09905 -1.31856,3.126171 h -3.76262 c -0.0129,-0.792506 -0.0194,-1.592519 -0.0194,-2.399708 v -8.706451 -0.704277 c 0.006,-0.491651 0.013,-0.869376 0.0194,-1.13355 0.0129,-0.176147 0.0959,-0.286215 0.2499,-0.330216 l 1.19361,-0.407599 z"
       inkscape:label="path540-2"
       sodipodi:nodetypes="csccscccccccccscccssccccccscccccc" />
    <path
       id="path540-2-6-9-5-1-6"
       style="font-weight:bold;font-size:85.3333px;font-family:Constantia;-inkscape-font-specification:'Constantia Bold';white-space:pre;display:inline;fill:#cccccc;fill-opacity:1;stroke-width:0.247008"
       d="m -183.15311,35.009146 c -0.82121,0.02935 -1.79012,0.04431 -2.90643,0.04431 -0.41735,0 -0.80921,-0.0031 -1.18775,-0.008 -1.78246,0 -3.47751,0.635201 -4.68062,1.667743 -1.25747,1.11632 -1.88605,2.568788 -1.88605,4.357754 0,2.196853 1.3088,4.551201 3.92637,7.062916 v 0.064 h -3.16627 l -1.11602,-2.490008 -0.54854,0.107325 0.34645,4.540399 0.0577,0.09645 c 1.93111,-0.02145 3.88773,-0.03196 5.87016,-0.03196 l 0.14436,-1.996749 c -1.42427,-2.297039 -2.13641,-4.64401 -2.13641,-7.041239 0,-1.631538 0.26946,-2.930461 0.80837,-3.896488 0.52919,-0.955652 1.28417,-1.441389 2.26497,-1.458612 v 14.398235 c 0.36901,-0.0037 0.74709,-0.0062 1.13993,-0.0062 h 2.38632 c 1.51409,0 3.06347,0.01098 4.64813,0.03301 l 0.0677,-0.07688 0.24044,-4.347958 -0.58688,0.09905 -1.31856,3.126171 h -3.76262 c -0.0129,-0.792506 -0.0194,-1.592519 -0.0194,-2.399708 v -8.706444 -0.704277 c 0.006,-0.491651 0.013,-0.869376 0.0194,-1.13355 0.0129,-0.176147 0.0959,-0.286215 0.2499,-0.330216 l 1.19361,-0.407599 z"
       inkscape:label="path540-2"
       sodipodi:nodetypes="csccscccccccccscccssccccccscccccc"
       clip-path="url(#clipPath4460)" />
  </g>
</svg>
